<?xml version="1.0" standalone="no"?>
<!DOCTYPE svg PUBLIC "-//W3C//DTD SVG 20010904//EN"
 "http://www.w3.org/TR/2001/REC-SVG-20010904/DTD/svg10.dtd">
<svg version="1.0" xmlns="http://www.w3.org/2000/svg"
 width="512.000000pt" height="512.000000pt" viewBox="0 0 512.000000 512.000000"
 preserveAspectRatio="xMidYMid meet">

<g transform="translate(0.000000,512.000000) scale(0.100000,-0.100000)"
fill="#000000" stroke="none">
<path d="M2315 5109 c-720 -74 -1370 -439 -1799 -1009 -505 -670 -649 -1543
-386 -2340 127 -387 332 -720 621 -1009 405 -405 902 -649 1494 -733 118 -17
512 -17 630 0 592 84 1088 328 1494 733 405 406 649 902 733 1494 17 118 17
512 0 630 -84 592 -328 1088 -733 1494 -396 395 -881 639 -1449 726 -126 19
-477 28 -605 14z m-383 -1893 l326 -146 315 0 315 0 335 149 336 149 335 -151
336 -152 0 -552 c0 -304 -2 -553 -4 -553 -2 0 -153 67 -336 150 l-332 150
-334 -150 -335 -150 -313 0 -313 0 -329 145 c-181 80 -335 145 -344 145 -8 0
-165 -65 -349 -145 -184 -80 -336 -145 -338 -145 -2 0 -3 249 -3 553 l0 553
343 151 c188 83 347 149 352 148 6 -2 157 -69 337 -149z m527 -1330 c9 -11 6
-20 -14 -44 l-26 -31 28 -4 c22 -3 20 -4 -11 -6 l-38 -1 32 36 c32 37 31 48
-5 57 -19 4 -19 5 1 6 12 0 27 -5 33 -13z m113 -11 c22 -49 -25 -98 -60 -63
-7 7 -12 24 -12 38 0 51 52 69 72 25z m66 -27 c-1 -51 -2 -51 -5 -10 -2 23 -9
42 -14 42 -6 0 -7 5 -4 10 15 24 25 6 23 -42z m83 43 c-35 -9 -39 -31 -6 -31
23 0 26 -4 23 -27 -4 -38 -44 -45 -57 -11 -14 39 8 79 43 77 19 -1 19 -2 -3
-8z"/>
<path d="M1251 3179 c-172 -76 -315 -140 -317 -142 -2 -2 -3 -233 -2 -514 l3
-509 323 139 322 140 0 513 c0 283 -3 514 -7 513 -5 -1 -149 -63 -322 -140z
m167 -105 c8 -2 12 -26 12 -72 l0 -69 -72 1 c-104 1 -181 -43 -194 -111 -10
-53 6 -63 100 -63 155 -1 203 -46 194 -187 -9 -132 -87 -247 -205 -303 -59
-28 -142 -37 -183 -20 -30 12 -30 13 -30 91 0 44 2 79 4 79 2 0 20 -7 39 -15
91 -38 218 8 253 91 19 45 18 60 -6 84 -17 17 -33 20 -101 20 -101 0 -145 18
-166 69 -21 50 -13 164 15 223 67 138 219 220 340 182z"/>
<path d="M1600 2807 l0 -514 98 -43 c53 -23 197 -87 320 -141 123 -55 225 -99
228 -99 2 0 4 231 4 514 l0 515 -22 7 c-12 4 -153 65 -313 136 -159 72 -296
132 -302 135 -10 4 -13 -102 -13 -510z m373 214 c4 -4 6 -177 5 -384 l-3 -377
-52 25 -53 24 0 380 0 380 48 -21 c26 -11 50 -23 55 -27z"/>
<path d="M3218 3177 l-318 -142 0 -512 c0 -282 3 -513 8 -512 4 0 149 64 322
142 l315 142 3 513 c1 281 -1 512 -5 511 -5 0 -151 -64 -325 -142z m202 -115
l0 -69 -142 -64 -143 -65 -3 -72 c-2 -39 -1 -72 1 -72 3 0 55 22 116 50 l112
49 -3 -70 -3 -70 -112 -51 -113 -51 0 -94 c0 -51 4 -93 9 -93 6 0 69 27 142
60 72 33 136 60 140 60 14 0 11 -128 -3 -137 -20 -13 -381 -173 -390 -173 -4
0 -8 169 -8 375 0 346 1 376 18 386 21 13 364 167 375 168 4 1 7 -30 7 -67z"/>
<path d="M3570 2807 l0 -512 308 -139 c169 -76 315 -141 325 -144 16 -4 17 25
17 507 l0 512 -37 16 c-21 8 -153 67 -293 130 -140 64 -270 122 -287 129 l-33
14 0 -513z m319 243 l47 -21 112 -423 c62 -233 112 -428 112 -434 0 -10 -91
26 -107 42 -3 3 -18 49 -32 102 l-26 97 -109 49 c-60 27 -113 45 -117 41 -3
-5 -16 -38 -28 -75 l-22 -66 -59 25 -58 26 85 246 c47 135 96 278 109 316 33
96 33 95 39 95 4 0 28 -9 54 -20z"/>
<path d="M3851 2765 c-52 -145 -54 -135 30 -173 40 -17 74 -31 75 -29 2 2 -14
68 -35 147 l-38 144 -32 -89z"/>
<path d="M2277 3023 c-4 -3 -7 -235 -7 -515 l0 -508 300 0 300 0 0 515 0 515
-293 0 c-162 0 -297 -3 -300 -7z m374 -156 c240 -127 207 -662 -46 -726 -24
-6 -89 -11 -144 -11 l-101 0 0 380 0 380 123 0 c110 0 129 -3 168 -23z"/>
<path d="M2460 2509 l0 -242 64 5 c83 7 127 34 158 96 19 40 23 63 23 147 0
88 -3 105 -25 145 -37 66 -79 90 -156 90 l-64 0 0 -241z"/>
<path d="M2514 1876 c-11 -28 0 -61 20 -61 27 0 44 30 30 53 -15 22 -43 27
-50 8z"/>
<path d="M2692 1833 c5 -26 38 -29 38 -4 0 15 -6 21 -21 21 -14 0 -19 -5 -17
-17z"/>
</g>
</svg>
